<?xml version="1.0" standalone="no"?>
<!DOCTYPE svg PUBLIC "-//W3C//DTD SVG 20010904//EN"
 "http://www.w3.org/TR/2001/REC-SVG-20010904/DTD/svg10.dtd">
<svg version="1.0" xmlns="http://www.w3.org/2000/svg"
 width="1300.000000pt" height="1390.000000pt" viewBox="0 0 1300.000000 1390.000000"
 preserveAspectRatio="xMidYMid meet">
<metadata>
Created by potrace 1.16, written by Peter Selinger 2001-2019
</metadata>
<g transform="translate(0.000000,1390.000000) scale(0.100000,-0.100000)"
fill="#000000" stroke="none">
<path d="M6351 13765 c-202 -46 -359 -190 -423 -387 -43 -131 -22 -311 49
-435 l24 -43 -176 0 -175 0 0 -290 0 -290 95 0 95 0 1 -132 c0 -73 0 -168 -1
-210 l-1 -78 104 0 104 0 5 -187 c3 -104 4 -190 2 -192 -7 -8 -221 72 -307
116 -139 69 -249 146 -354 247 -178 169 -322 357 -426 555 l-50 93 42 82 c123
241 83 506 -105 691 -274 271 -669 287 -1271 51 -191 -74 -370 -156 -783 -356
-701 -341 -871 -413 -1195 -510 -393 -117 -735 -170 -1104 -170 l-213 0 7 -27
c40 -161 222 -325 459 -414 85 -32 93 -38 200 -145 98 -97 123 -117 211 -161
148 -75 306 -118 521 -142 77 -8 85 -11 148 -59 188 -144 387 -207 691 -218
144 -6 164 -8 196 -29 117 -75 273 -133 433 -162 185 -32 471 -16 711 41 l99
24 101 -102 c157 -160 331 -292 524 -395 l81 -44 -75 -70 c-176 -162 -257
-337 -257 -557 -1 -160 34 -287 118 -425 80 -134 238 -286 402 -388 86 -54
302 -165 375 -192 26 -10 47 -20 47 -24 0 -3 -36 -42 -81 -86 -133 -133 -206
-238 -259 -377 -139 -360 -57 -796 214 -1146 84 -108 259 -276 378 -361 l46
-33 -65 -61 c-152 -143 -263 -319 -304 -487 -31 -122 -23 -304 18 -445 66
-222 192 -417 399 -614 l117 -112 -75 -77 c-131 -136 -208 -261 -243 -397 -21
-83 -19 -225 4 -317 50 -196 138 -337 328 -526 l133 -133 -64 -73 c-85 -98
-123 -155 -153 -229 -82 -201 1 -446 220 -653 62 -59 108 -92 169 -122 81 -40
186 -72 240 -72 26 0 26 -1 32 -92 3 -51 10 -275 17 -498 6 -223 15 -420 21
-438 19 -64 119 -79 169 -26 23 24 23 28 36 462 7 240 14 470 15 511 l3 75 70
12 c79 13 198 59 270 105 192 122 346 375 349 574 1 71 -3 90 -34 163 -38 89
-87 161 -169 247 l-53 55 34 27 c78 64 214 204 271 278 70 92 137 229 162 330
26 103 24 258 -4 360 -38 135 -145 302 -266 414 -26 23 -45 44 -43 45 2 1 42
36 89 79 315 280 486 635 466 961 -13 208 -112 403 -303 591 l-84 84 94 71
c181 137 386 373 474 547 38 73 80 189 104 279 20 78 22 113 22 279 0 178 -2
196 -27 278 -56 180 -148 326 -296 470 l-80 78 47 21 c261 112 471 240 610
373 243 231 340 518 272 804 -37 154 -150 328 -271 418 l-48 37 82 44 c191
102 372 238 530 400 l99 101 101 -24 c248 -59 526 -75 717 -41 155 28 317 89
417 157 39 27 48 29 143 29 327 0 573 76 782 243 29 23 51 31 110 37 390 45
618 146 798 356 41 49 58 60 131 88 249 94 422 244 467 407 l10 37 -267 5
c-447 9 -774 69 -1236 228 -236 81 -418 162 -1130 507 -716 346 -1006 446
-1326 459 -217 8 -352 -24 -498 -121 -133 -89 -231 -219 -265 -352 -18 -70
-21 -219 -5 -279 16 -62 50 -146 76 -188 l24 -39 -47 -91 c-94 -185 -217 -350
-389 -523 -121 -123 -230 -204 -361 -271 -92 -47 -253 -112 -316 -128 l-28 -7
0 69 c0 39 3 125 7 191 l6 122 99 0 98 0 0 210 0 210 100 0 100 0 0 290 0 290
-176 0 c-97 0 -174 3 -172 8 74 142 93 223 85 350 -13 230 -174 431 -396 496
-80 23 -195 28 -270 11z m234 -116 c83 -15 162 -58 218 -118 73 -78 92 -127
92 -241 0 -84 -3 -102 -28 -153 -116 -236 -446 -287 -634 -99 -58 58 -88 114
-103 192 -35 186 96 371 295 415 76 17 89 17 160 4z m-2095 -274 c131 -33 267
-126 340 -231 46 -65 70 -151 70 -246 0 -129 -34 -226 -104 -300 -30 -31 -31
-27 36 -173 218 -477 663 -858 1193 -1022 29 -9 30 -11 37 -94 4 -46 8 -159
10 -252 l3 -167 -26 0 c-31 0 -190 40 -281 71 -96 33 -304 134 -393 192 -291
188 -536 428 -739 725 -32 46 -60 91 -63 100 -4 10 -19 37 -34 62 -28 46 -102
222 -114 272 -6 25 -4 27 37 37 64 16 125 50 158 88 40 45 38 55 -6 37 -19 -8
-64 -18 -99 -21 -273 -25 -508 212 -481 486 l7 64 -83 -74 c-567 -510 -1330
-852 -2150 -964 -186 -25 -500 -31 -653 -11 -151 20 -303 57 -395 98 -68 30
-190 107 -190 120 0 5 60 8 133 8 282 0 568 55 967 186 25 8 54 18 65 23 11 5
61 24 110 41 200 73 448 184 945 425 688 333 919 431 1174 496 198 51 389 59
526 24z m4385 -4 c272 -55 549 -168 1215 -494 452 -221 658 -315 915 -417 480
-190 866 -279 1218 -280 l142 -1 -39 -34 c-52 -46 -182 -109 -291 -140 -172
-49 -259 -59 -535 -59 -261 0 -362 9 -603 54 -720 132 -1447 483 -1935 935
l-72 67 0 -94 c0 -150 -43 -254 -140 -342 -113 -101 -306 -139 -446 -86 -36
14 -37 13 -17 -21 23 -41 80 -78 158 -104 l62 -21 -27 -80 c-92 -271 -334
-616 -593 -845 -248 -221 -491 -367 -749 -453 -122 -40 -272 -75 -282 -65 -2
2 -2 115 1 251 l6 247 96 32 c131 43 341 146 464 229 285 190 532 473 665 760
72 156 72 147 18 218 -26 34 -49 69 -51 79 -3 10 -11 45 -20 78 -26 106 -12
222 40 325 68 134 248 250 434 280 81 13 250 4 366 -19z m-1724 -611 c1 -8 3
-81 5 -161 l4 -146 -201 -6 c-110 -3 -405 -3 -655 0 l-454 6 0 158 0 159 298
3 c163 2 456 3 649 3 306 -1 353 -3 354 -16z m-3175 -178 c28 -47 96 -122 129
-141 19 -10 17 -14 -30 -57 -359 -333 -1115 -661 -1770 -768 -460 -76 -866
-28 -1117 130 l-46 29 261 0 c428 0 727 49 1150 189 478 158 995 442 1337 734
l35 30 13 -52 c7 -28 24 -70 38 -94z m5054 123 c38 -46 312 -240 490 -347 539
-325 1173 -535 1743 -579 154 -12 475 -8 512 7 42 16 -6 -25 -68 -59 -333
-182 -818 -195 -1431 -37 -482 124 -985 353 -1306 596 -52 40 -111 89 -130
109 -34 36 -35 37 -15 51 77 55 138 140 165 232 14 45 21 50 40 27z m-2060
-519 l0 -166 -470 0 -470 0 0 159 0 160 53 3 c28 2 240 5 470 7 l417 3 0 -166z
m-2666 77 c10 -32 40 -111 66 -175 47 -113 48 -117 29 -134 -10 -9 -16 -21
-12 -27 3 -6 1 -7 -5 -3 -6 4 -33 -9 -59 -28 -266 -189 -708 -385 -1098 -486
-284 -74 -368 -85 -655 -84 -245 0 -259 1 -355 27 -55 15 -136 45 -180 66
l-80 39 92 1 c50 1 151 8 225 16 667 76 1444 391 1916 777 46 37 87 68 91 68
4 0 15 -26 25 -57z m4366 42 c16 -20 178 -141 270 -202 417 -278 994 -506
1528 -602 109 -20 299 -39 432 -44 l65 -2 -51 -27 c-67 -35 -188 -73 -299 -94
-127 -23 -470 -15 -640 15 -493 88 -1050 312 -1381 557 -40 29 -75 57 -78 62
-3 5 14 54 38 108 24 54 53 132 65 172 23 74 30 83 51 57z m-1909 -555 c-1
-80 -6 -300 -11 -490 -5 -190 -17 -675 -26 -1078 l-18 -733 -110 -34 c-218
-66 -282 -85 -294 -85 -8 0 -12 22 -12 68 0 37 -5 231 -10 432 -5 201 -17 646
-25 990 -8 344 -18 725 -21 847 l-7 222 104 4 c57 1 178 3 268 3 l163 -1 -1
-145z m-2209 7 c26 -39 70 -100 97 -134 l50 -62 -47 -34 c-86 -63 -190 -126
-291 -177 -493 -247 -1012 -323 -1389 -204 -88 28 -111 44 -64 44 43 0 234 36
345 65 389 101 815 291 1152 514 50 33 92 60 95 60 3 0 26 -32 52 -72z m3920
44 c468 -314 1084 -562 1511 -606 38 -4 65 -11 60 -15 -17 -16 -181 -62 -273
-76 -453 -68 -1102 122 -1538 452 -2 1 30 47 70 101 41 54 85 115 97 136 12
20 24 37 27 37 2 0 23 -13 46 -29z m-3447 -570 c177 -148 383 -272 578 -348
96 -37 407 -123 445 -123 12 0 25 -6 27 -12 4 -12 25 -531 21 -535 0 -1 -29
33 -62 76 -73 93 -203 195 -322 252 -237 113 -533 137 -774 63 -46 -14 -90
-26 -99 -27 -45 -4 -382 207 -524 328 -55 47 -175 181 -175 195 0 4 51 30 113
59 130 61 325 167 447 245 l85 54 100 -97 c55 -53 118 -112 140 -130z m3295
114 c52 -32 180 -99 283 -150 l188 -92 -27 -34 c-130 -161 -335 -320 -577
-447 l-97 -52 -53 20 c-174 65 -421 74 -626 23 -91 -23 -208 -73 -296 -128
-73 -45 -206 -166 -258 -235 l-27 -35 6 210 c2 116 7 238 10 271 l5 61 47 7
c69 9 335 84 422 118 261 103 487 253 725 480 l100 96 40 -28 c22 -15 83 -53
135 -85z m-2990 -879 c0 -5 -95 -36 -110 -36 -43 0 -260 -117 -260 -140 0 -3
26 -30 58 -61 75 -73 97 -99 84 -99 -6 0 -43 32 -83 70 -41 39 -79 70 -85 70
-7 0 -28 -21 -47 -47 -115 -159 -135 -323 -54 -463 29 -50 35 -55 64 -52 49 5
138 -81 105 -102 -5 -3 -24 10 -43 29 -33 33 -69 46 -69 24 0 -17 199 -211
270 -263 36 -26 73 -54 83 -62 9 -8 21 -14 26 -14 5 0 11 -4 13 -8 2 -5 21
-20 43 -35 22 -15 34 -27 27 -27 -7 0 -10 -5 -7 -10 4 -6 10 -8 15 -5 10 6
105 -33 97 -41 -3 -3 -26 3 -50 14 -25 11 -47 18 -50 16 -6 -7 -187 55 -257
88 -36 17 -94 48 -129 70 -34 21 -66 38 -70 38 -4 0 -20 14 -36 30 -29 31 -58
43 -35 15 10 -12 10 -19 2 -27 -9 -9 -22 -2 -54 27 -63 59 -68 67 -56 88 14
28 3 32 -21 8 -31 -31 -79 -25 -102 14 -20 33 -18 55 11 96 18 26 18 27 -8 80
-40 79 -43 188 -9 286 28 81 115 207 169 244 18 13 40 31 49 41 9 10 21 18 28
18 19 0 12 23 -16 52 -37 39 -22 47 18 9 18 -18 38 -30 43 -27 105 46 205 76
296 90 36 5 150 7 150 2z m784 -802 c4 -97 5 -178 3 -180 -6 -7 -286 78 -465
140 -122 42 -290 114 -298 128 -4 6 1 8 13 4 38 -12 170 -25 253 -26 153 0
349 40 440 90 19 10 38 19 41 20 3 0 9 -79 13 -176z m916 100 c152 -39 412
-43 535 -7 39 11 0 -13 -81 -50 -116 -53 -438 -163 -656 -224 -16 -4 -18 5
-18 100 0 57 3 138 6 179 l7 76 56 -25 c31 -14 99 -36 151 -49z m552 -235 c69
-15 129 -44 162 -77 86 -89 111 -137 121 -236 l7 -66 -33 -14 -34 -14 -6 51
c-9 71 -52 158 -98 200 -72 65 -217 90 -307 52 -51 -21 -112 -80 -135 -130
-19 -40 -25 -136 -13 -183 6 -19 11 -22 34 -17 16 3 31 1 35 -4 4 -7 -3 -10
-17 -8 -18 1 -22 -2 -20 -18 5 -36 11 -44 53 -75 23 -16 38 -31 33 -31 -21 -3
-31 -5 -73 -19 l-44 -14 -29 35 c-16 18 -38 43 -47 54 -37 41 -46 204 -17 292
31 95 122 176 236 211 76 24 120 26 192 11z m59 -206 c54 -41 87 -82 89 -109
6 -115 6 -118 -20 -130 -63 -29 -65 -28 -62 26 5 72 -30 140 -82 160 -54 20
-95 13 -132 -24 -37 -37 -41 -60 -20 -120 15 -45 37 -60 72 -52 26 7 31 26 12
55 -17 27 5 51 48 51 33 0 34 -1 34 -40 0 -30 -7 -48 -31 -75 -27 -31 -37 -35
-78 -35 -36 0 -59 7 -93 30 -40 27 -47 36 -53 76 -11 77 2 122 50 170 52 51
91 65 164 58 43 -4 65 -12 102 -41z m-1461 -318 c0 -8 -187 -95 -204 -95 -10
0 -14 -5 -10 -11 5 -9 -2 -10 -22 -6 -16 3 -23 4 -16 1 18 -8 15 -27 -4 -20
-8 3 -13 2 -10 -3 3 -5 -8 -14 -25 -21 -17 -7 -36 -18 -42 -24 -7 -6 -44 -32
-82 -58 -39 -26 -90 -65 -115 -87 -25 -22 -51 -41 -57 -41 -7 0 -13 -7 -13
-15 0 -8 -9 -20 -20 -27 -11 -7 -20 -17 -20 -22 0 -5 -8 -16 -18 -25 -10 -9
-31 -35 -48 -58 -17 -24 -34 -40 -38 -36 -4 4 -4 0 0 -10 3 -9 2 -17 -4 -17
-8 0 -20 -24 -26 -52 0 -3 -4 -9 -8 -13 -4 -4 -4 -13 -1 -21 6 -18 -23 -19
-31 -1 -3 6 -3 2 0 -10 3 -13 1 -23 -5 -23 -6 0 -11 -5 -11 -11 0 -5 4 -7 10
-4 11 7 3 -49 -11 -77 -5 -9 -10 -27 -10 -40 -1 -16 -4 -12 -8 12 -6 29 -8 22
-15 -46 -4 -44 -12 -87 -16 -94 -5 -8 -7 4 -4 31 3 24 2 39 -3 33 -10 -13 -93
-6 -93 9 0 5 -8 3 -18 -6 -25 -23 -32 -13 -28 37 2 22 1 29 -1 14 -2 -16 -9
-28 -14 -28 -5 0 -7 12 -4 28 4 15 9 38 11 52 5 23 37 93 68 147 7 13 16 20
21 15 5 -4 5 -1 1 6 -5 8 -1 21 10 33 17 19 17 19 32 -2 8 -11 11 -23 7 -27
-3 -3 -10 0 -15 8 -5 8 -12 11 -17 7 -4 -5 -2 -12 5 -16 7 -4 17 -21 22 -37
l8 -29 1 34 c1 25 5 32 15 28 10 -4 13 -1 9 9 -3 7 -9 14 -13 14 -4 0 -17 16
-29 35 -25 43 -9 46 29 5 15 -16 31 -30 36 -30 4 0 0 8 -9 18 -10 10 -14 22
-10 25 3 4 -1 7 -10 7 -9 0 -17 7 -17 15 0 20 14 19 35 -1 9 -9 18 -14 21 -11
3 2 -5 13 -18 23 l-23 19 43 43 c23 24 42 39 42 33 0 -5 -4 -13 -10 -16 -5 -3
-10 -12 -10 -18 0 -7 12 0 25 16 27 31 35 33 35 13 0 -8 -10 -22 -22 -30 -17
-12 -18 -16 -6 -16 24 0 40 25 36 57 -3 24 1 28 22 29 42 1 48 3 54 21 6 16 6
16 -12 0 -10 -9 -24 -17 -32 -17 -21 0 7 26 64 60 76 46 88 53 110 73 11 10
27 15 35 12 9 -3 12 -3 9 1 -11 10 244 135 387 190 39 14 74 30 80 35 10 10
25 12 25 4z m496 -757 c-3 -145 -9 -370 -13 -502 l-6 -238 -52 -33 c-79 -51
-255 -148 -259 -144 -4 4 -26 811 -26 959 l0 95 98 38 c168 65 226 85 246 86
18 1 19 -8 12 -261z m-516 -60 c0 -68 5 -231 10 -363 5 -131 7 -241 5 -243
-12 -12 -124 82 -199 167 -99 112 -130 207 -101 307 13 47 28 69 78 118 53 53
176 136 199 136 5 0 8 -55 8 -122z m685 84 c98 -60 133 -91 175 -154 37 -55
40 -66 40 -127 0 -88 -37 -165 -121 -255 -66 -71 -176 -162 -185 -153 -3 3 -1
155 5 339 6 183 11 345 11 361 0 15 3 27 8 27 4 0 34 -17 67 -38z m815 -34 c0
-9 4 -8 10 2 8 13 10 12 10 -2 0 -15 9 -18 45 -18 l46 0 -6 -32 c-4 -18 -2
-44 4 -58 9 -22 10 -20 5 13 -4 20 -3 37 0 37 12 0 25 -48 27 -97 1 -26 4 -52
6 -56 3 -4 27 15 54 43 28 27 55 50 60 50 11 0 -39 -70 -50 -70 -17 -1 -71
-83 -75 -113 -5 -37 -30 -123 -51 -172 -6 -16 -18 -46 -25 -65 -8 -19 -24 -52
-37 -72 -28 -46 -28 -51 0 -82 38 -42 48 -56 39 -56 -5 0 -24 17 -41 37 -18
21 -35 33 -39 27 -4 -5 -26 -31 -47 -59 -55 -69 -208 -223 -276 -277 -52 -42
-227 -166 -274 -195 -11 -7 -51 -30 -90 -52 -121 -69 -117 -63 -66 -110 24
-23 40 -41 35 -41 -6 0 -29 18 -53 40 l-43 41 -42 -25 c-22 -14 -75 -42 -116
-63 -58 -30 -102 -65 -199 -158 -68 -66 -136 -133 -150 -149 -14 -15 -39 -35
-54 -43 -20 -10 187 211 280 299 5 4 227 225 494 490 285 283 490 493 494 508
3 14 10 34 14 45 34 84 56 254 45 348 -6 49 -4 61 12 77 22 22 54 26 54 8z
m-1262 -1171 c-7 -7 -46 -35 -85 -61 -40 -27 -70 -53 -66 -59 3 -6 1 -7 -5 -3
-7 4 -33 -8 -58 -26 -26 -18 -72 -51 -103 -72 -30 -22 -65 -48 -76 -59 -11
-10 -37 -33 -59 -50 -74 -62 -178 -173 -224 -242 -120 -178 -148 -330 -96
-524 14 -53 27 -97 29 -99 1 -1 84 80 183 180 100 99 185 178 188 175 4 -3
-75 -88 -175 -187 -165 -165 -180 -184 -174 -208 3 -15 13 -37 21 -50 12 -19
13 -27 2 -50 -11 -22 -14 -24 -17 -9 -6 22 -12 22 -34 -4 -15 -18 -21 -19 -33
-9 -9 6 -18 20 -21 31 -9 27 -17 24 -65 -22 -55 -53 -64 -43 -11 13 22 24 41
46 41 49 0 3 -13 21 -30 39 -16 18 -30 38 -30 43 0 6 -11 33 -25 61 -29 62
-55 170 -55 235 0 168 137 373 365 545 66 51 301 206 310 206 3 0 34 18 70 40
36 22 67 40 70 40 3 0 33 17 67 38 81 50 125 68 96 39z m226 -1007 l-7 -341
-96 -68 c-53 -38 -106 -74 -118 -80 l-23 -12 0 154 c0 85 -3 241 -7 348 l-6
195 94 56 c130 77 163 95 167 93 2 -2 0 -157 -4 -345z m-395 -165 l0 -100 -35
40 c-46 52 -84 126 -84 165 0 41 13 66 64 118 l41 43 7 -83 c3 -46 6 -128 7
-183z m587 129 c3 -18 1 -49 -6 -68 -11 -36 -95 -156 -108 -156 -8 0 -4 327 4
349 8 23 102 -84 110 -125z m-555 -842 c-113 -95 -175 -141 -184 -135 -6 3 -8
0 -6 -8 2 -8 -15 -33 -38 -55 -24 -23 -43 -39 -43 -36 0 3 -17 -17 -37 -45
-23 -29 -44 -48 -52 -45 -8 3 -11 0 -7 -7 11 -17 -4 -36 -16 -20 -8 11 -9 10
-4 -4 3 -10 -8 -39 -26 -70 -42 -71 -68 -158 -70 -233 -1 -35 -5 -62 -9 -61
-4 1 -27 -16 -51 -39 -86 -81 -78 -49 11 43 45 46 48 53 26 53 -8 0 -15 5 -15
10 0 6 -10 10 -22 9 -13 0 -17 -3 -10 -6 20 -8 14 -33 -8 -33 -31 0 -44 44
-30 102 7 26 16 51 21 54 5 3 9 12 9 19 0 32 120 180 127 157 3 -6 9 -9 15 -6
6 4 5 10 -3 15 -11 6 -5 17 24 46 32 32 39 36 48 23 8 -12 9 -11 5 6 -5 16 3
28 34 53 22 18 45 29 50 26 6 -3 7 1 4 10 -5 11 -2 14 12 8 11 -4 15 -3 11 4
-6 10 27 39 46 41 5 0 16 9 25 19 9 10 42 34 72 53 30 19 71 47 90 62 51 41
52 34 1 -10z m323 -731 l-7 -251 -51 -43 c-28 -24 -63 -52 -78 -62 l-28 -17 0
88 c0 49 -3 166 -6 259 l-6 170 88 57 c48 32 89 56 91 54 2 -2 1 -117 -3 -255z
m641 172 c-15 -36 -18 -113 -5 -113 7 0 10 7 6 15 -3 8 -1 15 4 15 5 0 10 12
12 28 l3 27 18 -34 c9 -19 15 -37 12 -39 -3 -3 -5 0 -5 6 0 7 -5 12 -11 12 -5
0 -7 -5 -4 -10 4 -6 1 -17 -5 -25 -9 -11 -9 -15 -1 -15 11 0 90 67 123 105 13
15 17 16 17 5 0 -8 -27 -42 -59 -75 -33 -33 -60 -67 -60 -75 0 -9 -4 -20 -9
-25 -4 -6 -17 -35 -27 -65 -17 -49 -67 -130 -86 -138 -5 -2 -8 -9 -8 -15 0
-25 -225 -229 -351 -319 -188 -134 -216 -151 -230 -142 -8 4 -9 3 -5 -4 4 -7
-9 -21 -31 -35 -41 -26 -383 -364 -383 -378 0 -5 -4 -9 -9 -9 -4 0 -64 -55
-132 -123 -137 -135 -174 -168 -168 -150 5 14 48 58 705 713 278 278 520 523
538 545 46 58 65 120 73 243 3 39 9 72 14 72 5 0 9 -10 9 -22 1 -22 1 -22 12
-3 25 42 58 64 43 28z m-670 -1355 c-2 -35 -7 -193 -10 -353 -13 -638 -35
-1396 -40 -1405 -3 -6 -12 -10 -20 -10 -20 0 -23 59 -35 715 -6 325 -13 691
-16 815 l-6 225 58 37 c33 21 62 38 67 38 4 0 5 -28 2 -62z m-241 -210 c3 -62
8 -178 10 -258 6 -166 4 -167 -65 -25 -46 95 -69 180 -69 251 0 50 2 54 53 98
28 25 55 46 59 46 3 0 9 -51 12 -112z m374 62 c61 -58 64 -78 32 -206 -19 -73
-107 -270 -117 -261 -2 3 -1 120 3 261 5 179 10 256 18 256 7 0 35 -22 64 -50z"/>
<path d="M7142 7321 c-257 -254 -351 -353 -346 -365 9 -23 19 -20 72 16 182
125 409 339 506 477 53 75 130 211 123 217 -2 2 -162 -153 -355 -345z"/>
<path d="M3247 893 c1789 -2 4717 -2 6505 0 1789 1 326 2 -3252 2 -3578 0
-5041 -1 -3253 -2z"/>
<path d="M1008 762 c-15 -3 -18 -15 -18 -77 0 -69 2 -74 23 -77 32 -5 80 9 95
29 18 25 15 87 -5 105 -19 16 -66 26 -95 20z"/>
<path d="M990 410 l0 -80 45 0 c59 0 95 32 95 84 0 51 -31 76 -92 76 l-48 0 0
-80z"/>
</g>
</svg>
