<?xml version="1.0" standalone="no"?>
<!DOCTYPE svg PUBLIC "-//W3C//DTD SVG 20010904//EN"
 "http://www.w3.org/TR/2001/REC-SVG-20010904/DTD/svg10.dtd">
<svg version="1.0" xmlns="http://www.w3.org/2000/svg"
 width="360.000000pt" height="360.000000pt" viewBox="0 0 360.000000 360.000000"
 preserveAspectRatio="xMidYMid meet">

<g transform="translate(0.000000,360.000000) scale(0.100000,-0.100000)"
fill="#000000" stroke="none">
<path d="M1685 3244 c-66 -10 -154 -38 -225 -72 -100 -49 -232 -178 -277 -272
-76 -156 -99 -291 -90 -530 9 -255 48 -396 155 -567 44 -71 142 -175 201 -212
61 -39 70 -39 36 0 -29 35 -27 46 4 30 30 -16 33 -2 25 104 -6 87 -9 98 -33
116 -14 11 -52 45 -83 75 -63 62 -64 66 -73 228 -9 162 20 264 103 365 44 54
137 124 217 162 l60 29 -39 -32 c-124 -103 -200 -175 -222 -210 -14 -22 -23
-42 -21 -45 3 -2 27 19 53 48 58 62 219 169 362 241 134 68 178 107 202 178
19 55 19 55 29 27 6 -16 11 -31 11 -34 0 -3 23 -42 51 -86 77 -120 126 -241
145 -357 3 -19 8 -37 11 -40 6 -5 -4 110 -14 163 -9 47 12 21 26 -33 19 -73
38 -198 40 -267 2 -53 -1 -67 -18 -81 -11 -9 -27 -45 -35 -81 -23 -92 -44
-130 -100 -181 -27 -25 -62 -58 -79 -73 l-29 -28 4 -114 c2 -63 7 -117 10
-121 7 -7 134 79 183 123 88 80 192 226 228 323 31 84 42 226 28 367 -36 373
-94 563 -212 697 -75 85 -170 133 -245 124 -24 -3 -60 3 -94 14 -54 19 -226
32 -295 22z m582 -646 c-3 -7 -5 -2 -5 12 0 14 2 19 5 13 2 -7 2 -19 0 -25z"/>
<path d="M1411 2384 c0 -11 3 -14 6 -6 3 7 2 16 -1 19 -3 4 -6 -2 -5 -13z"/>
<path d="M2107 1534 c-7 -7 3 -35 18 -49 5 -5 28 -19 50 -30 55 -27 149 -126
190 -199 72 -130 99 -250 111 -494 6 -134 8 -144 28 -152 11 -4 25 -5 29 -3
14 8 -7 321 -29 434 -41 212 -161 390 -319 475 -46 24 -67 29 -78 18z"/>
<path d="M1410 1489 c-67 -39 -163 -114 -211 -165 -77 -85 -161 -238 -184
-339 -4 -19 -22 -41 -47 -60 -62 -45 -83 -94 -83 -190 0 -73 2 -80 20 -80 18
0 21 9 26 70 6 82 19 117 55 150 31 29 89 33 133 11 32 -17 79 -84 88 -126 7
-36 25 -53 48 -44 39 15 -21 155 -89 205 -22 16 -47 29 -56 29 -9 0 -21 5 -27
11 -22 22 35 162 105 259 39 55 151 158 215 197 49 31 87 73 87 98 0 12 -28 3
-80 -26z"/>
</g>
</svg>
